{"accessors":[{"bufferView":0,"componentType":5126,"count":1093,"max":[19.9999980926514,22.4725723266602,12.482349395752],"min":[-19.9999980926514,6.95629930496216,-12.482349395752],"normalized":false,"type":"VEC3"},{"bufferView":1,"componentType":5126,"count":1093,"max":[1.0,1.0,1.00000011920929,1.0],"min":[-1.0,-1.00000011920929,-1.0,1.0],"normalized":false,"type":"VEC4"},{"bufferView":2,"componentType":5126,"count":1093,"max":[1.0,1.0,1.0],"min":[-1.0,-1.0,-1.0],"normalized":false,"type":"VEC3"},{"bufferView":3,"componentType":5126,"count":1093,"max":[0.997558534145355,0.997558534145355],"min":[0.00242618448100984,0.00915541313588619],"normalized":false,"type":"VEC2"},{"bufferView":4,"componentType":5123,"count":1392,"max":[1092.0],"min":[0.0],"normalized":false,"type":"SCALAR"},{"bufferView":5,"componentType":5126,"count":461,"max":[20.0,12.0000028610229,12.4823484420776],"min":[-20.0,-0.000000119209289550781,-12.4823484420776],"normalized":false,"type":"VEC3"},{"bufferView":6,"componentType":5126,"count":461,"max":[1.0,1.0,1.0,1.0],"min":[-1.0,-1.00000011920929,-1.0,1.0],"normalized":false,"type":"VEC4"},{"bufferView":7,"componentType":5126,"count":461,"max":[1.0,1.0,1.0],"min":[-1.0,-1.0,-1.0],"normalized":false,"type":"VEC3"},{"bufferView":8,"componentType":5126,"count":461,"max":[0.963775098323822,0.997558534145355],"min":[0.00242618448100984,0.0880445539951324],"normalized":false,"type":"VEC2"},{"bufferView":9,"componentType":5123,"count":708,"max":[460.0],"min":[0.0],"normalized":false,"type":"SCALAR"}],"asset":{"generator":"Godot Engine v4.5.1.stable.official@f62fdbde15035c5576dad93e586201f4d41ef0cb","version":"2.0"},"bufferViews":[{"buffer":0,"byteLength":13116,"byteStride":12,"target":34962},{"buffer":0,"byteLength":17488,"byteOffset":13116,"byteStride":16,"target":34962},{"buffer":0,"byteLength":13116,"byteOffset":30604,"byteStride":12,"target":34962},{"buffer":0,"byteLength":8744,"byteOffset":43720,"byteStride":8,"target":34962},{"buffer":0,"byteLength":2784,"byteOffset":52464,"target":34963},{"buffer":0,"byteLength":5532,"byteOffset":55248,"byteStride":12,"target":34962},{"buffer":0,"byteLength":7376,"byteOffset":60780,"byteStride":16,"target":34962},{"buffer":0,"byteLength":5532,"byteOffset":68156,"byteStride":12,"target":34962},{"buffer":0,"byteLength":3688,"byteOffset":73688,"byteStride":8,"target":34962},{"buffer":0,"byteLength":1416,"byteOffset":77376,"target":34963}],"buffers":[{"byteLength":78792,"uri":"chest0.bin"}],"extensionsUsed":["GODOT_single_root"],"images":[{"uri":"textures%2F_albedo.jpg"},{"uri":"textures%2F_orm.jpg"},{"uri":"textures%2F_normal.jpg"},{"uri":"textures%2F_orm2.jpg"},{"uri":"textures%2F_normal2.jpg"}],"materials":[{"extensions":{},"normalTexture":{"index":2,"scale":1.0},"occlusionTexture":{"index":1},"pbrMetallicRoughness":{"baseColorFactor":[1.0,1.0,1.0,1.0],"baseColorTexture":{"index":0},"metallicFactor":1.0,"metallicRoughnessTexture":{"index":1},"roughnessFactor":1.0}},{"extensions":{},"normalTexture":{"index":5,"scale":1.0},"occlusionTexture":{"index":4},"pbrMetallicRoughness":{"baseColorFactor":[1.0,1.0,1.0,1.0],"baseColorTexture":{"index":3},"metallicFactor":1.0,"metallicRoughnessTexture":{"index":4},"roughnessFactor":1.0}}],"meshes":[{"primitives":[{"attributes":{"NORMAL":2,"POSITION":0,"TANGENT":1,"TEXCOORD_0":3},"indices":4,"material":0,"mode":4}]},{"primitives":[{"attributes":{"NORMAL":7,"POSITION":5,"TANGENT":6,"TEXCOORD_0":8},"indices":9,"material":1,"mode":4}]}],"nodes":[{"children":[1],"name":"defaultScene"},{"children":[2,3],"name":"Node","rotation":[0.0,1.0,0.0,-0.0000000000000000612323426292584]},{"mesh":0,"name":"Mesh"},{"mesh":1,"name":"Mesh2"}],"samplers":[{"magFilter":9729,"minFilter":9987,"wrapS":10497,"wrapT":10497}],"scene":0,"scenes":[{"nodes":[0]}],"textures":[{"sampler":0,"source":0},{"sampler":0,"source":1},{"sampler":0,"source":2},{"sampler":0,"source":0},{"sampler":0,"source":3},{"sampler":0,"source":4}]}